<svg xmlns="http://www.w3.org/2000/svg" width="428" height="800" viewBox="0 0 428 800" fill='#141414'><title>Untitled-1</title><path d="M412.52,56.16c-4.78-.86-9.13-4.1-13.66-6.29.17-.57.35-1.14.53-1.72l17.3-1.95a193.06,193.06,0,0,0-19.88-.83c-1.61,0-3.74,0-4.72-1-5.38-5.11-10.48-10.5-16.39-16.54h24.42c0-.25,0-.5,0-.75l-9.83-1.91,0-1.26,14.56-3.6c-.12-.47-.24-.93-.37-1.4-6.82,1.61-13.69,3.1-20.48,4.89-8.13,2.14-15.73,3.33-21.92-4.5C359,15.39,354.88,12.21,350.43,8c12.19-2.46,22.11,4.21,32.81,4.17-2-1.77-5.14-3.63-4.89-4.6,1.5-5.62-2.52-5.38-5.76-6.12.46.83,1.39,1.27,1.85,2,.59.9,1.43,2.48,1.05,3-.65.9-2.36,1.9-3.26,1.64-5.7-1.67-11.31-3.68-17-5.57a8.15,8.15,0,0,1-4.77.61,23.3,23.3,0,0,1-4.26-1.52c-.1,2-.69,4.19-.11,6,.49,1.56,2.25,2.81,3.6,4,4,3.62,8.17,7.17,13.28,11.64l-28.54-4.5c0-.58.08-1.17.13-1.75l6.21-1.91-.12-.59-6.33-.41c1.83-2.4,3-3.86,4.71-6.14l-7-6.22c-4.64,4.68-8.67-.15-13.75-.13,1.95,1.26,2.91,2.27,4.08,2.57,2.62.67,5.4.76,8,1.52,3.87,1.14,5.62,4.3,4.32,7.72-.49,1.29-4.41,2.23-6.51,1.87-8.53-1.47-14.91,2.28-21.4,6.87-2.17,1.54-6.42,2.7-8.37,1.63-5.95-3.23-11.26-7.63-17.22-11.87,2.7-1.17,5.47-2.76,8.46-3.6C294,7.07,297.4,9.5,298.5,14c.62,2.57,1.47,5.08,2.21,7.61l.66-.2L300,10.14,301.27,9c2.81,2,5.62,4,9,6.44l-3.1-5.19h22.44c-9.26-1.9-19.21.63-27.56-5.92,4-.9,7.94-1.82,12.63-2.91-6.37,0-12.27-1.17-17.43.26-9.86,2.71-19.28,7-28.9,10.5-7.28,2.69-7.5,2.54-10.5-5.52h9.88L241.9,1.38c.23,2.22.43,4.28.59,5.92L207.15,12,207,11,226.5,6.79c0-.23-.08-.46-.11-.69l-8.85-.39c0-.41,0-.81,0-1.22L224,1.81c-2.36-.18-4.74-.08-6.48,1-4.47,2.8-9.83,3.37-13.46.81-5.93-4.21-12-1.68-18-2.55a15.54,15.54,0,0,0-3.05,0,7.32,7.32,0,0,0-1.47.41l4.1,2.21c-9.13,4.89-10.44,4.55-10.9-2.65a27.09,27.09,0,0,0-4,0C164.48,2,157.51-1.45,151.89,4c-.43.41-2.11.08-2.84-.42C142.74-.74,135.87,1.68,127.93,1c2.61,3.16,4.33,5.26,6.1,7.42l-13.78,3.06c-.75-9.59-.75-9.59-4.76-9.73,5.87,4.9,5.35,10.87-1.5,14.39a46.85,46.85,0,0,1-9.47,3.46,45.32,45.32,0,0,1-7.22.8c-.21-.49-.43-1-.64-1.46,11.52-.9,8.26-12.37,14.54-17.32-4.58-1.54-4.52,1.72-5.42,3.81-3,7-8.51,7.73-13.85,1.59,1.43-1.78,2.9-3.57,4.35-5.37l-1.1-1L90.13,8,89,4.81C86.48,7,83.9,9.17,81.32,11.37l-1.31-1L81.5,1.21H69.59C67.08,13.4,66.17,12.73,54.86,9.75,56.31,6.94,57.75,4.21,60,0c-2.83,1.26-5.13,1.54-5.72,2.68-2.56,4.92-7.08,6.38-12,7.49a8.43,8.43,0,0,1-1.45,0c.74-1.4,1.34-2.51,1.88-3.51-6.1-1.72,0-3.59-.62-6.07L32,3.75c-.41-.49-1.33-2.49-2.3-2.52C19.94,1,10.17,1.09,0,1.09V773c0,9,0,18,0,27H156.67c-6.91-5.8-16.55-18.4-28.32-34.16-15.17-20.29-27-23.58-27-23.58-2.87.26-5.08.28-7.2.7-5.47,1.06-7.6.28-8.18-5a141.85,141.85,0,0,1-.32-20.31c.11-3.12-.48-4.49-3.68-5.81a60.65,60.65,0,0,1-14.37-8.15c-4.8-3.74-4.2-6.68.61-10.45a18.44,18.44,0,0,0,4.78-5c3.91-6.9,6.25-8.1,14-7.73,2.34.11,4.86-1.25,7.15-2.24,3.63-1.58,7.07-3.58,10.72-5.09a87.26,87.26,0,0,1,8.51-2.61c4-1.17,7.91-2.56,12-3.38,2.45-.5,5.08-.1,7.64-.1,0-.26.05-.52.07-.79l-14.22-1.82v-7c-2.54,9.32-8,12.92-16.9,10V649.22l-1.43.06c0,2,0,3.94,0,5.91s0,4-.19,6c-.4,5.92-4.56,10.71-10.51,10.11-7.63-.77-14.75,4-22.43,1.26-1-.36-2.75.39-3.74,1.15-2,1.53-3.61,3.5-5.54,5.11A26.21,26.21,0,0,1,54.33,681c-.81-1.36-2.31-2.73-2.32-4.1,0-5.61-.14-11.32.8-16.81,1.11-6.47,4.43-11.84,11.35-14.16.72-.24,1.76-.84,1.87-1.42,1.54-7.94,6.11-15.85-.6-24.77,3.93-1,7.08-2.39,10.22-2.36,4.86.05,9.71,1.33,14.58,1.59,2.51.13,6.1,0,7.42-1.5,2.88-3.27,4.61-7.52,6.81-11.35-8.14,7.1-9,7-13.48-2,3-4.37,5.75-8.76,8.93-12.81a52,52,0,0,1,7.13-7c6.16-5.32,8.76-12.51,11.33-19.76l-9.26,14.4c-1.54-2.1-2.52-3.46-3.52-4.84.23,2.6,1.54,5.89.44,7.17-3.73,4.33-8.32,7.94-12.61,11.86-2.16-5.17-4.21-10.06-6.24-14.94a73,73,0,0,0,3.28,14.11c1,3.21.19,5.74-2.41,8a44.57,44.57,0,0,0-4.5,5.34l7.55,6.48c-11.59,2.49-19.63-5.64-29.84-6.63,3.44-4.29,6.45-8.67,10.12-12.42,2.51-2.57,2.58-4.21.08-6.58-3.39-3.2-6.66-6.54-9.81-10-1.86-2-3-4.63.37-6.07,7.41-3.18,14.78-6.78,22.55-8.68,8.86-2.17,17.35-6.9,27.12-4.82,2.79.6,4.51-1.21,3.9-4.26-1-4.73-1.64-9.54-3-14.12-1.29-4.19-.39-7.37,3.3-9.4,2.59-1.42,5.65-2,8.46-3.06,1.38-.53,2.65-1.34,4-2a37.93,37.93,0,0,0-3.58-2.91c-2.55-1.61-5.46-2.75-7.74-4.65s-6.2-3.45-4.93-7.51l17-3c-4.25-11.82,6.79-17.72,9.39-26.81-3.54,3.45-6.45,7.32-9.86,10.71-2.46,2.43-3.92,4.88-3.43,8.31.67,4.51-1.88,5.57-5.74,5-3.44-.49-8.16,1.25-7.66-5.42.55-7.28.13-14.63.13-21.95l-2,0c0,6.4.29,12.81-.12,19.18-.22,3.4-1.66,6.7-2.56,10l-2.59-.07-2.18-7.46c-3.55,6.79-6.24,14.39-13.65,19.45-3.75-9.18-2.86-18.09-3.11-27-.9,6.2-1.92,12.6-.68,18.55,2.29,11,1.51,21.89.4,32.76a22.69,22.69,0,0,1-4.57,11.34c-2.78,3.46-7.3,5-12.42,3.72,2.28-8,4.48-15.59,6.58-23.2a5.36,5.36,0,0,0-.12-2.69C73.44,525.13,70.62,520,73.5,514c2.76-5.75,6.59-11,7.29-17.82.56-5.51,3.09-10.83,4.75-16.25l-1.09-.34c-2,4.92-4.09,9.83-6.6,15.88-2-3.38-3.16-5.05-4.06-6.82-3.07-5.93-1.68-9.65,4.08-13.13,7-4.24,13.74-8.84,21.15-13.64a36.14,36.14,0,0,0-4.28-5c-3.74-3.07-4.69-6.54-3.11-11.1.8-2.26.58-4.86.8-7.3.17-1.87.3-3.74.45-5.62-1,9.4-8.86,18.88.77,27.95-3.81,2.56-7,4.75-11.13,7.52V457.83c-1.7,8.63-3.64,16.64-15.66,16.54,2.22,8.69,4.26,16.46,6.2,24.25.77,3-4.47,10.61-7.52,10.6-1.09,0-2.62-1.3-3.17-2.39-1.72-3.42-2.91-7.09-4.59-10.53s-.66-6.22,2.4-7.6c4.24-1.91,4.49-5.08,3.87-8.64-1.13-6.58,1.33-12.27,5.65-16.61,3.32-3.33,7.56-5.72,8.91-10.58.52-1.87,1.31-3.84,1.16-5.71-.57-7.05-2.52-14.18-1.84-21.07.37-3.85,4.9-7.33,7.6-10.95,2.3-3.08,5-1.15,7.27-.17a76.28,76.28,0,0,1,10.07,5.42c1.86,1.15,4,2.78,4.56-.45,1.1-6.4,6-9.8,10.1-13.87,2-2,3.83-2.31,6,.09a55,55,0,0,0,5.87,5l.57-.54-5.83-7.83c8.62-4.83,16.2-5.08,22.3,3.57a84.91,84.91,0,0,0-6.95-9.87,2.1,2.1,0,0,0-1.79-.6c-6.47,1.8-13.38,2.83-19.23,5.82s-10.47,7.93-15.72,12.09c-1.19-8.49-.28-16.55,7.06-23.35,11.73-10.87,22-5.53,32.12,3.1,3.4-8.31,8-13.78,16.66-14.72,5.55-.6,11.06-1.41,16.57-2.29a57.46,57.46,0,0,0,6.34-1.77l-.24-.59-13.55,1.26,1.3-2.55q-8.8,3-19,6.49c.25-2.66.41-4.34.55-5.87-3.38,4.83-6.7,9.58-9.76,13.94l-7.09-6.19L148.84,372c-11.22-1.61-12.05-2.72-11.78-13,.07-2.56-.71-5.15-1.15-8,11.09-9,24.92-12.11,38.73-15.46a68.51,68.51,0,0,0-31.42,7.59c.84-3.57,1.4-5.93,1.75-7.38-3,3.74-6.34,8.05-10.33,13.11-8.19-10.26-9-19.08-.4-26.5,3.37-1.86,6.67-2.6,7.84-4.57,2.18-3.69,4.69-3.33,7.65-2,3.91,1.77,7.69,3.81,11.61,5.77,1.29-3.73,2.32-7.59,4-11.2a84.35,84.35,0,0,1,6-10.71c4.87-7.61,9.74-15.22,14.93-22.61,3.13-4.45,7.5-6.33,13.2-4.5,2.36.76,5,.76,7.32,1.08-12.63-8.38-21.07-1.1-28.71,8.92-.59-4.55-1-7.89-1.47-11.23l-1.08.13c.17,1.33.34,2.65.56,4.45l-3.51-2.35c7.34,7.93,2.51,14.94-3.56,21.6-8.87-5.05-13.48-17.6-10.21-27.8,2.56-8,4.25-8.75,11.63-4.85,3.09,1.64,5.33,1.27,8.29-.69,6.12-4,12.71-7.43,19.1-11.06,1-.55,2-1,4-2.1-10.69.68-17.25,7.19-24.85,11.52l-1.4-1q4.17-9.39,8.35-18.75l-1.38-.66L172.4,260.9c-5.06-2.88-13.22-2.51-11.85-12.19l4.4-2.24c-5.75-7.78-11.31-15.31-16.78-22.69,4.74-4.13,8.83-7.79,13-11.32.91-.77,2.22-1.69,3.27-1.62,8.09.52,16.53-.14,22.89,6.59,1.66,1.76,4.21,2.76,6.45,3.93s4.76,2.2,7.14,3.29c.1-.23.18-.47.26-.71l-11.57-8.19,13-2.14c-6.61-2.78-13.34,3-19.11-2.16,6.35-3.32,12.31-6.58,18.41-9.56a88.8,88.8,0,0,1,8.8-3.22c4.58-1.66,9.15-3.35,12.92-4.73-.76-1.95-1.44-2.79-1.26-3.4.65-2.2,1.57-4.33,2.39-6.5-1,1.2-2.48,2.29-2.73,3.62-1.31,6.7-5.58,9.33-12.14,9.29-1.65,0-3.29.28-5.74.51,1.36-7.61,3.95-14.39,9.56-18.89,3-2.44,8-1.38,11.16,2.14l8.59,3.5,39.07-22.64-.15-.29-15.14,6.32c1.24-4.83,2.1-8.22,3-11.59-2.54,4.43-3.89,9.68-7.16,13.21-3.4,3.69-8.66,5.7-13.09,8.47a29.64,29.64,0,0,1-3.37,2.22,4.82,4.82,0,0,1-3.22.43c-5.46-2.17-10.81-4.55-16.56-7,1-1.35,1.94-2.6,2.85-3.81l5.35,3.09c4.89-3,9.11-5.62,13.33-8.24-5.27,1-9.48,4.39-15.26,2.63,4.79-4.69,10.06-8.44,15.26-12.28,2.23-1.64,4.28-3.51,6.47-5.2s4.23-3.78,6.71-4.74c3.92-1.5,8.17-2.14,12.25-3.28,6.25-1.75,12.39-2.84,18.86-.52,2.63,1,5.77.56,8.68.78,0-.29.07-.58.1-.88L280.65,139l.12-.9,6.19-1.74A119.47,119.47,0,0,0,268,138.55c-6.17,1.11-12.32,2.36-18.49,3.54,2-5.18,4.71-9.14,7.14-13.29a10.33,10.33,0,0,1,7.9-5.34c3.43-.56,6.68-2.18,10-3.33-.11-.31-.24-.62-.35-.94l-11.87,2.88c6.93-8.2,13.58-13.41,23.93-13.45,10.87,0,16.8-4.61,19.11-12.89-2.57,4.66-6,8.09-12.06,8.54l1.62-3.82c-4.06,7.72-11.49,5.91-19.1,7l7-8.2-.77-5.71,1.5-.41,5.81,4.72c.31-.4.61-.8.93-1.2-2.51-2-4.74-4.55-7.59-5.68A31.25,31.25,0,0,0,271,88.53c-8.43.12-13.62-4.71-18.53-10.87l9.61,1.8c-4.84-2.3-10.52-3.24-14.49-6.31s-6.11-8.23-9.06-12.48C264,65.39,285.39,78.57,309,86.4L280.91,71.09c0-.67,0-1.35,0-2l27-9.95c-5.33.94-10.05,1.76-14.77,2.61-2.09.37-4.16.78-6.25,1.18-4.06,4-8.1,6.65-14.52,4.07-10.31-4.13-21-7.35-31.45-11.16a6.74,6.74,0,0,1-3.78-3.45c-3.53-10.31-6.78-20.73-10.17-31.29,1-.25,2.48-.7,4-.93,3.21-.51,5.11.4,5.12,4.1,0,2.78.68,5.55,1.11,8.78,7.75-.27,14.6,1.46,19.89,7.15a2.71,2.71,0,0,0,2.36.44c8.95-3.28,14.09.83,17.45,8.53-.55-2-1.09-4-1.64-6l1-1c3.89,2.34,7.78,4.7,12,7.23-.75-1.1-1.37-2-2.27-3.29h3.37c-3.87-1.53-7.35-3.3-11-4.28-5.9-1.59-11.19-5.87-18-3.89-1.06.31-3.48-1.2-4-2.4a80.26,80.26,0,0,1-3.1-10l1.4-.76,8,4.63.77-1-5.17-3.56c.3-.45.58-.89.87-1.34,5.43,2.15,11.21,3.72,16.21,6.6,4.61,2.66,9,3.58,14,2.41A12.29,12.29,0,0,1,300.13,35C309,41.94,318,48.82,327.05,55.53a38.16,38.16,0,0,1,12.44,15.25c3,6.38,7.88,11.9,12,17.74.65.9,1.86,1.43,3.1,2.36-4.91-7.7-9.52-14.91-14.13-22.13l1.34-1.08,17,14.57,1.27-1.4q-28-24.77-56-49.54c5.38.4,10.34,2.22,15.45,3.33s10.33,1.49,15.5,2.19c.06-.44.12-.87.19-1.31L324,33.37c0-.42,0-.84,0-1.26l12.1-3.52a32.05,32.05,0,0,0-11.86,2c-5.11,1.89-9.48,1.3-14.45-3.11,13.35-.52,26.85-6.84,37.44,6.19,1.5,1.84,4.13,2.88,6.35,4.07,2.9,1.55,5.92,2.87,8.88,4.29l.27-.62q-10-7.48-20.1-15c.28-.43.54-.87.82-1.3,6.5,1,13.06,1.71,19.48,3.13a12.36,12.36,0,0,1,6.27,4.22c3,3.63,5.43,7.73,8.09,11.62l1.18-.73-6.4-10.73a9.09,9.09,0,0,1,5.31,2.51c4.3,4.25,8.42,8.66,12.66,13,11.22,11.39,25,13.93,37.94,7C422.79,55.58,417.44,57,412.52,56.16ZM112.05,515.56l9.07,7.37-11,5.48C110.79,524,111.38,520.08,112.05,515.56Zm-10.14,3.75q-6.59,10.08-13.18,20.17l-.93-.26c.27-6.2.53-12.38.87-18.57a3.15,3.15,0,0,1,.94-1.67c4.38-4.7,8.78-9.38,13.33-14.21,6,4,5.48,11,3.34,16.87-2.69,7.4-1.34,13.82.94,20.67.75,2.25,1.33,5.84.11,7.14-2.48,2.65-6.17,2.68-9.86,1-1.72-.78-4-.36-6.1-.29a23.39,23.39,0,0,0-3.64.71c0-1.53-.46-3.32.18-4.55,2.94-5.63,6.21-11.07,9.33-16.6,1.86-3.3,3.67-6.63,5.51-9.94ZM208.25,6.23c-4.14,4.29-7.35,3.84-13.69-2.18Zm-10.92,5.6c-5.46,3.18-15.12,3.21-18.62-.2C189.18,4.58,190.86,4.62,197.33,11.83ZM182.75,77.46c-2.21-5.57-2.05-8.43,1.15-11.85,2.53-2.73,3.39-7.06,4.71-10.77a39.44,39.44,0,0,0,1.22-6.23l-3,.82c-.21-1.08-.89-2.34-.55-3.2a18.81,18.81,0,0,1,2.73-3.9l1.49.11c.12,1.47.23,2.94.35,4.41,1.35-.09,2.92-.66,4-.18,3.06,1.35,5.92,3.12,8.88,4.73ZM214.26,55c-3.13,6-8.61,6.59-14.29,6.86C202.83,53.2,208.11,50.5,214.26,55ZM149.43,95.3c-.69-5.14,2.75-7.71,6.76-9.64,4.59-2.2,6.46-5.88,7.3-10.59.41-2.36,1.8-4.56,2.74-6.83-1.11,1.29-2.89,2.45-3.2,3.91-1.34,6.18-3.71,11-10.53,13.32-2.14.72-4.26,4.33-4.57,6.84-.77,6-3.75,8.56-9.61,9.54-2.24.37-4.08,3-7.22,4.08l12.41-17.11c-.16-.13-.31-.26-.48-.38l-13,13.75-1.56-1c2.4-4.14,4.72-8.32,7.24-12.39,1-1.55,2.7-2.67,3.47-4.27,5.28-11,16.08-14.49,26.36-18.66.35-.14.92.23,1.38.37q4.5-3.37,9-6.78c5.3,9.15,4.61,17.16-2.62,24.22-4.68,4.57-10.32,8.23-14.66,13.06a45.58,45.58,0,0,1-16.85,12.13c-2.17.9-3.76,3.16-5.74,4.89-.16-8.46.43-9.4,7.9-11.54C147.56,101.2,150,99.54,149.43,95.3Zm-15.67,51.62c.8,1.34,1.91,2.49,2.47,4.09-8.42-1.14-9-10.37-15.68-13.3l10.92-12.78c-1.67,5.41,2.1,10.08-1.34,14.94C129.4,140.91,132.35,144.56,133.76,146.92Zm-54.85,1.93c-5.38,3.52-10.3,7.73-15.52,11.5-.88.63-2.24.61-3.38.89.2-1.21.06-2.6.65-3.58a37.51,37.51,0,0,1,12.07-12.14c3.71-2.41,5.55-7.64,8.14-11.67,1-1.52,1.69-3.21,2.85-5.47C87.49,135,84.58,145.13,78.91,148.85Zm3.2,1.16c.29,10.46-7.22,14.43-13.35,20.14l-6.62-6.22ZM58.79,126.84l2.4.12-1.41,22.85L58,149.73C58.6,142.11,54.78,134.28,58.79,126.84ZM84.72,71.58,59.44,75.67c.84-1.41,1.53-2.56,2.24-3.73-.18-.12-.34-.24-.5-.37l-3.41,2.82c0-3.46-.48-7.09.16-10.5.45-2.37,2.43-4.46,4.75-6.83.69,9.49,7.69,10.19,14.15,11.75a75.35,75.35,0,0,1,7.89,2.77l.3,0-.23.07.08,0c4.29,1.35,8.69,2.42,12.76,4.21,3.67,1.61,7,4.1,10.49,6,10.29,5.6,10.73,12.21.76,18.91-.1-1.56-.19-2.88-.29-4.29-6.86,1-7.27,7-10.15,13-4.86-9.35-1.25-18-3-26.3-.63,5.31-1.26,10.6-2,16.77l-4-5.95-.54.23,3.39,8.17-.79,1.34c-3.43-1.55-6.83-3.15-10.3-4.62-7.16-3-13-9.37-22-8.14-.41-2.73-.8-5.24-1.19-7.75l-.81,0c-.13,2.53-.27,5.05-.46,8.38L46.25,90.1c2-1.76,3.57-3.08,5-4.56C58.42,78.25,68.69,77.78,77.43,74a75.23,75.23,0,0,1,7.36-2.38Zm24.41,53c-5.58,3.18-11.19,6.38-16.66,9.52-.44-2.1,2.11-5.54,5.86-7.58,3.2-1.74,6.3-3.63,10-5.81.18.86.46,2.36.75,3.87l.11-.06-.1.09h0c1.21,1.39,2.43,2.77,4.49,5.11H103.06l6.08-5.12S109.13,124.57,109.13,124.56ZM108,114.83l16.44-11c3,3.77.94,9.91-8.29,24.16Zm-38.31,5.51c.55-1,4.44-.87,6.44-.22,2.29.73,4.18,2.63,7.35,4.78-5.54,6.34-8,15.15-17.62,18.56C64.07,134.72,65.85,127.26,69.67,120.34Zm-5,4.84-6.19-7.6c.31-.46.6-.93.91-1.39l9.3-.57C67.3,118.85,66.27,121.29,64.64,125.18Zm-2.19-22.82C63,100.72,64,98,64.88,95.3c9.35,1.32,15.54,5.94,17.69,13.41Zm-6.26-8.45c.49,4.3.83,7.35,1.16,10.32-7.84,2.87-8.33-3.44-10.55-7.52Zm27,10.88c9.75-1.08,9.75-1.08,13.92,5.46-2.75.9-5.91,3-7.67,2.25C87,111.39,85.67,108,83.2,104.79Zm13.16,29.26c5.21-4.41,11.4-1.61,18.55-1.87A63.85,63.85,0,0,1,92,151.35C90.1,144,91.37,138.27,96.36,134.05Zm3.38,30.51c-.2-5.76.63-6.47,8.35-13,3.92-3.28,7.12-7.38,11.74-12.27,2.32,4.77,4.38,9,6.44,13.27l-1.44.76-3.07-3.2c.63,2.4.91,3.51,1.42,5.45C114.49,156.32,105.26,154.59,99.74,164.56ZM115.29,158c-.68,3.06-9.79,11.78-12.47,11.52-1.38-.14-2.62-1.62-4.8-3.06C104.13,162.6,107.49,156.11,115.29,158Zm9-1.78c2.16,7,6.87,12.86,3,19.64-3-5.31-6-10.62-9.32-16.43ZM184.46,48.61c4.13,8.87,3.5,11.56-4.16,16.86C177,54.55,177.17,53.84,184.46,48.61Zm4.2-11.31c-2.8-2.79-4.53-4.53-6.89-6.9l10.7-5,1.19,1C192.13,29.73,190.61,33.06,188.66,37.3Zm-2.92.43L172.13,54.18c-.83-8.31-1.5-15.14-2.18-21.94h0c-.05,4-.82,8.19.07,12,1.7,7.31-2.2,14.22-9.69,15.66a10,10,0,0,0-2.75,1.16c-9.82,5.3-19.61,10.63-29.63,16.06l-4.69-8.65L144,55.39l3.44,6c-.22-4.69-3.35-9.24,1.9-11.54,4.25-1.86,8.8-2.54,12.65,1.73l-2.59-3.73L164.61,49c-2.32-2.67-4.28-4.92-6-6.83,1.45-3.14,2.83-5.76,3.87-8.49,1.82-4.81,3.24-5.15,7.29-1.43h.13V32.1s0,.09,0,.14C175.64,31.85,180.41,34,185.74,37.73ZM145.38,32l9.07,10.55c-2.69,1.78-5.59,3.72-9.6,6.39-.51-6.4-.91-11.26-1.31-16.11ZM141.27,16.9c2.81,1.06,6,1.75,8.52,3.33,4.21,2.61,9.3,5.09,11.63,9,1.78,3-1.22,7.49-5.45,9.81C150.18,31.79,139.84,27.38,141.27,16.9Zm12-6.41c.66-.85,1.38-1.73,2.06-2.65s1.1-1.61,2.46-3.62c2.38,2.87,4.53,5.13,6.28,7.63,3.74,5.36,7.27,10.84,10.91,16.28-5.15-3.45-14.8-1.72-15-12.22a28.6,28.6,0,0,0,0,2.93,6.71,6.71,0,0,1-.36,3.89l-19.05-14C143.77,6.1,143.77,6.1,153.32,10.49Zm-24.19,1.78c-.12-.07-.66-.38-1.61-.9l8.09-.95Q138,25.33,140.4,40.2a2.74,2.74,0,0,1,0,.5c-.22,4.29,5,8.81-.28,12.84a93.39,93.39,0,0,1-11,7.33c-3.78,2.15-7.87,3.79-11.82,5.64,1.85,3.41,3.38,7.06,5.66,10.17,3.27,4.47-.1,7.24-2.45,11.51-.34-2.73-.58-4.56-1-7.56-.45,2.31-.69,3.53-1,4.82L104.92,77h14c-.09-.88-.18-1.79-.21-2.1-.86.4-1.76,1.19-2.59,1.14-1.84-.12-3.67-1-5.47-1-13.55.58-24.09-8.61-36.77-10.8-.43-.07-.79-.56-1.19-.87,5.36-3.92,13.93-1.9,22.75,4.81L134,45.78l-.09-.41c-4.41,1.83-8.83,3.65-14.11,5.82,1-4.27,1.72-7.62,2.47-10.95-.77,1.44-2.1,2.83-2.22,4.32-.54,6.36-5,9.32-10,12.06-4.54,2.47-8.74,7-13.39,7.43-4.43.39-9.26-3.38-13.9-5.34-.14-.06-.23-.24-.83-.88l26.7-7.2c-.08-.44-.16-.89-.25-1.34l-9.32,1c.54-1.83.94-3.15,1.34-4.48-3.38,8-11.05,6.65-17.49,8.24-5,1.23-9.73,3.47-16,5.76,0-3.08-.65-6,.12-8.42,2.58-8.22,8.23-14.62,14.74-20,2.1-1.74,6.13-2.24,9.06-1.83,10.53,1.48,21,3.56,31.42,5.52.72.14,1.25,1.25,1.85,1.91l4.78-1.65-16.64-4.87c3.26-2.71,5.76-4.78,8.26-6.87-5.76,1.54-9.69,8-17.13,5.34-5.67-2-12.36-.55-18-4.46C101.69,26.27,114.82,17.78,129.13,12.27Zm-46.7,2.42c3.51-5.46,5.95-6,12.32-3.39,2.14.87,4.46,1.3,7.26,2.1C98.26,16,95.44,19.27,92.08,20c-3.09.66-6.8-1.35-10.17-2.37A5.39,5.39,0,0,1,82.43,14.69ZM75.6,32c1.7-2.9,3.31-5.63,4.93-8.37,3.53,3.94.25,9.36-8.93,14.2-.4-2.89-.78-5.62-1.27-9.3Zm-5.75,3.81c-1.59,4.79-2.86,8.65-4.44,13.43-2.16-4.26-3.82-7.54-5.75-11.37Zm-1-8.13v7.42H62.46Zm-9.08-2.58,5.82,1c-2.25,2.46-3.79,4.16-5.34,5.87L59,31.39C59.25,29.48,59.46,27.57,59.74,25.05ZM58,24.5c-.78,10.34-2.18,12.67-8.87,14.25C50.85,32.92,50.08,26.1,58,24.5Zm-16.78,5L50.76,23l1.18,1.56-4.68,4.1c0,10.44-.44,11.13-10.06,14C34.11,34.46,34.11,34.44,41.26,29.51Zm2.92,32.27a28.06,28.06,0,0,1-3.8-4c-.75-1.2-.65-2.88-1.19-4.25-1.51-3.76,0-5.54,4-6,1.21,2.77,3,5.38,3.34,8.19C46.75,57.6,45,59.74,44.18,61.78Zm-11.9-9.93c4.46,4.61,4.33,8.51-.65,12.41C31.85,60,32,56.28,32.28,51.85Zm3.23,18.83c1.9-2.08,6.09-3.33,9.05-3,5.81.58,6.32-2.88,6.23-6.58-.06-2.72-1.15-5.48-2.19-8.07-2.87-7.19-2.51-8,5.84-9.69.7,2.11,1.22,4,2,5.84s1.59,3.26,1,4.62C56.26,58.37,55.22,63,54,67.57a9.43,9.43,0,0,1-1.91,3.2c-.67.85-2.14,1.41-2.34,2.29-2.14,9.57-11.63,8.28-17.38,12.8C29.9,79.35,32.08,74.44,35.51,70.68Zm4.1,26.53c1.94-1,4.74-.39,7.15-.5l0-.12.06.12h0c.63,2.79,1.26,5.61,2,8.86a38,38,0,0,1-5,1.64c-2.77.51-6.44,2.87-8-.78S36.09,99,39.61,97.21ZM40.82,129c-1.11-2.83-2.91-5.41-4.6-8.41C41,119.26,45,118.11,49,117l3.77,7-4.1,1.74c3,10.78,2.28,21.55,1.8,33.09-6.72-5.13-10.29-16.45-8.52-22.67C42.56,134,41.69,131.26,40.82,129Zm8.39,36,5.1,3.6c-4,6.48-7.71,12.6-11.43,18.66C40.35,179,48.45,173.68,49.21,165.06Zm1.66,32.22c-5.31-3.41-2-7.47-1.87-11.11.12-3.14,2.13-5.82,6.08-6.27,1.77-.2,3.45-1.16,7-2.44-.49,7-.66,13.43-1.53,19.74-.46,3.28-2.66,6.33-3.21,9.61s-.82,7,.17,10.1c1.79,5.58.86,10.68-.52,16.26-8.9-8-9.87-15.53-3.79-24.32C57.48,202.71,57.47,201.53,50.87,197.28ZM121.1,359.73l-11.46-4.58a81.32,81.32,0,0,1,8.4-1.55C122.65,353.27,122.23,356.06,121.1,359.73Zm42.61-54.28c-1.38,3.29-2.77,6.58-4.27,10.16-3.25-1.53-6.33-2.77-9.14-4.46-.76-.46-1.38-2.65-.93-3.31C150.88,305.62,160.36,304.11,163.71,305.45ZM155.2,253c3.69,3,3.82,6.22,1.77,10.37-1.94,3.94-3,8.29-4.69,13.22C148.48,267.51,150,257.08,155.2,253Zm-5.81-13.9c2.57,1.9,4.12,4.31,1.11,7-6.86,6.14-8.71,13.48-8.36,22.57.23,6.2,1.11,11.71,4.38,16.69,2,3.11,5.16,5.54,7.8,8.27-.15.62-.3,1.24-.44,1.87-3.92,1.19-7.76,2.85-11.77,3.45-5.21.77-7.89,3.4-9.09,8.24-.21.84-2.61,2-3.49,1.68a56.66,56.66,0,0,1-7.44-3.74c-.29-3.43-1.08-6.94-.73-10.35a21,21,0,0,1,3-8c3.6-6.21,7.6-12.2,11.25-18.4.43-.71-.28-2.08-.54-3.55l-7.29,14.91c-.63-3-1-4.6-1.53-7.33-2.34,4.31,1.29,10.32-4.62,11.1-3.12.41-6.54-1.32-9.83-2.14v4.48c4.54,2.26,5.67,5.28,2.12,10.09-2.1,2.84-3.71,5.2-2.31,9,.52,1.38-.76,3.39-1.21,5.06.12.23.16.42.28.52,10,8.4,10.26,8.53,4.46,19.64-1.61,3.06-1.36,5,.18,7.66,1.68,2.86,2.93,6,5,10.32-6.12,1.2-11.66,2.19-17.17,3.43-1.48.33-2.79,1.43-4.19,2.16,1,1.22,1.74,2.84,3,3.58,5.18,3,10.53,5.68,15.72,9.73H96.38c.69,9.76-8.31,11.82-11.67,17.53-3.2-3.53-6-6.83-9-9.85-2.27-2.27-2.52-4.2.1-6.19,6.12-4.65,12.37-9.12,18.31-14,2.33-1.9,3.94-4.66,6.71-8.07-5.48,3.89-9.62,6.84-15,10.62.77-5.12,1.28-8.5,1.78-11.87L87,345a11.13,11.13,0,0,0-.92,2.61c-1,9.16-6.28,15.45-13.64,20.58-4,2.81-4,5.87-.47,9.23a21.87,21.87,0,0,1,3.09,3.3c3.94,5.68,3.46,8.14-2.86,13.94-1.09-1.46-2.87-2.76-3.06-4.28-.65-5-4.21-7.64-7.6-10.67a63.57,63.57,0,0,1-7.91-8.41c-3.34-4.28-3.2-6.56,1.9-7.63,6.89-1.46,8.09-6.64,11.19-11.11,3.44-5,8.11-9.14,12.6-13.3,1.27-1.17,4.17-1.95,5.68-1.36,7.38,3,7.8-1.31,8.64-6.68.64-4.18,2.76-8.14,4.14-12q-3-5.34-6.13-10.75c-3.17-5.55-4.21-10.78-.15-16.77,1.74-2.56,1.11-6.74,1.37-10.19.23-3,1.3-4.42,4.76-5.15,4-.83,7.52-3.37,11.3-5.08a20.5,20.5,0,0,1,8.29-2.18,7.93,7.93,0,0,0,.88-1.71c1.36-5.64,3.59-10.19,10-12.31,6.76-2.26,7.86-8,6.75-14.37-1.49,6.77-2,14.29-12.53,13.73.83-4,1.62-7.84,2.32-11.26l-2.56,2c-.6-2.08-1.06-3.71-1.53-5.33h-.33c.14,1.52,0,3.15.49,4.52,2.66,7.05-.85,13-3.62,18.93-1.31,2.8-6,2.28-7.25-1.09a119.46,119.46,0,0,1-5.37-18.11c-.77-3.59,3.8-8.2,9-9.43,4.57-1.08,9.31-1.45,15-2.29l-8.26-.54c2.42-2.86,4.23-5,6-7.15-5.29,3.81-9.2,9.69-17.9,9,1.78-2.77,3-6,5.31-7.87s2.71-3.52,2.42-6.27c-.46-4.14-.13-8.36-1.14-12.65-.31,4-.58,7.91-.93,11.87-.13,1.44,0,3.2-.72,4.23-3.47,4.59-7.39,8.85-10.8,13.47-1.51,2-2.18,4.67-3.32,7.21l-5.95-1.23C94,236,94,229.73,95.82,224c1.2-3.8,5-6.81,8.08-10.75-6.22-4.24-8.44-10.65-10.1-17.58-.58-2.41-3.38-4.3-6-5.83l6,8.17-4.53-.77c.07.26.06.61.19.69,6,3.18,5.82,10.14,9.27,14.92.42.58-2.63,4-4.58,5.5-.67.51-3.57-.49-4.26-1.55-3.09-4.74-5.74-9.77-8.59-14.75L79,204c1.62,2.25,3.72,4.36,4.83,6.88,2.83,6.39,7.23,12.41,6.2,19.91a52.68,52.68,0,0,1-2.48,10.9c-.9,2.51-2,4.27,1.7,5.16,1.6.39,3,1.43,4.55,2.06,5.81,2.4,10.22,11.28,7.34,16.68-1.1,2-4.94,2.95-7.7,3.79-2.31.7-4.9.53-8.84.88-.78-4.32-2.07-9-2.38-13.83-.27-4.42.91-8.92.68-13.35-.14-2.73-1.72-5.4-3.24-8.05.36,6.52.73,13,1.16,20.53l-3.54-2.36c2,7.94,3.89,16.1,6,24.2,2.08,7.85-.59,15.08-2.4,22.52-.63,2.58.19,5.6.75,8.33.32,1.57,1.65,2.92,2.19,4.48,2.42,7.07,2.17,8.2-4.07,10.25-4.52,1.5-10,1.11-14.86.28-2.2-.37-3.87-3.79-5.74-5.89a15.78,15.78,0,0,1-1.35-2.11c-6.57-10.34-5.89-17.87,2-27.67,5.14-6.37,10-13,14.75-19.64a6.82,6.82,0,0,0,.73-4.62c-.52-3.44-1.88-6.8-2.1-10.24s.6-7,.77-10.5c.2-4.21,1.49-8.92,0-12.51-2.41-5.88-2.69-11.49-2-17.52.7-6.26.86-12.57,1.55-18.83a59.48,59.48,0,0,1,2.18-11.17C77.6,176.68,80.7,172,88,172.1c1,0,2.06-.75,3.1-1.15v0c1.61-.7,3.23-1.39,5.25-2.24,3.21,5.16,6.8,4.07,10.72.25a13.4,13.4,0,0,1,5.27-2.8c6.18-1.89,9.57.19,10.69,6.56.93,5.34,1.85,10.71,2.34,16.11.22,2.46-.6,5-1.07,8.48-4.79-3.92-8.61-7.14-12.56-10.2a36.69,36.69,0,0,0-7.1-4.6c-1-.45-3.24,1.42-4,.91a27.4,27.4,0,0,1-6.23-5.88c-1.48-1.92-2.26-4.37-3.33-6.59,1.24,3.91,2,8.13,4,11.63,1.08,1.89,4.22,3.26,6.64,3.7,9.79,1.77,15.49,9.1,21.43,15.54,2.87,3.12,3.27,8.45,4.68,12.81,1.9,5.89,6.09,9.77,11.21,13,2.34,1.46,4.52,3.19,6.95,4.93-3,2.14-3.45,3.73-.35,5.08C146.89,238.15,148.36,238.34,149.39,239.11Zm6.75-33.84c-4.5,4.12-9.13,8.13-13.83,12a3.51,3.51,0,0,1-3.09.5,21.82,21.82,0,0,1-6-4.36c-4.91-5.77-3.57-9.64,4.21-12.06l-2.15-.7,9.49-14.33-15.24,14.9c-.2-8.77-1.86-16.1,2.28-23.11,2.51-4.26,1.66-8.7.4-13.34-.54-2,1.43-4.66,2.24-7,5.6,2.63,10.42,4.88,15.23,7.17,4.27,2,4.94,4.85,2.37,8.91-1.43,2.24-2.58,4.65-3.85,7,1.14,2.75,2.2,5.54,3.43,8.26,1.94,4.27,4.13,8.45,5.89,12.78C157.82,202.76,157,204.5,156.14,205.27Zm-15.62-49.58c.15-.49.32-1,.47-1.47,5.2-1.11,9.64-5.9,16-2.22.85.49,5.17-3.1,6.55-5.54a21.6,21.6,0,0,1,10.84-9.82c-1.27,11.94-11.7,17.75-15.55,26.83ZM168,189.57c-2.64,2.56-5.39,3.63-8.3.6-3.17-3.32-6.83-7.41-4.4-11.82A284.91,284.91,0,0,1,172,152.45c1.41-2,4.4-3,7.17-4.74-1.66-6.46,1.51-12.37,5.32-18.45q-2.83,3.44-5.68,6.85l-1.35-.26c.41-1.63.25-4.13,1.28-4.75,7.58-4.59,15.27-9,23.18-13,3.2-1.62,6.91-2,9.36-5.16,2-2.55,4.65-2,7.24-.47,2,1.21,4.11,2.24,7.14,3.89l-12.38,9.55-.85-.54,1.32-4.56c-2.89,8.12-11,14.13-10.38,23.59.26,4.06.36,8.25,1.56,12.08,1.09,3.48-.71,4.37-3,5.68-5.79,3.29-11.38,7-17.3,10-4.24,2.18-5.21,5.92-6.08,9.78-1,4.43-3.14,7.19-8.2,6.87A3.29,3.29,0,0,0,168,189.57Zm15.57-63.93-1.16-1,3.72-13.14c5.12-.44,8.68-.88,12.25-1,3.8-.15,7.6,0,11.41,0,.13.45.26.9.4,1.35-4.67,2.32-9.33,4.65-15.21,7.59.79-2.86,1.19-4.34,1.62-5.9Zm-5.52,2.16-1.7-.76,4.53-10.69,2,1.15C181.31,120.93,179.7,124.36,178.08,127.8Zm-7.5,73.93c1.79-1.73,3.59-3.45,6.09-5.85,2.3,2,3.67,3.22,5,4.42-2.33,1.5-4.52,3.39-7.06,4.28C173.73,204.89,172,202.75,170.58,201.73Zm7.52,5.77c2.27-2.77,7.73-2.45,6.7-7.88a7.28,7.28,0,0,1,3.5-1c3.44.35,6.84,1.06,10.78,1.72C192.83,205.53,185.87,207.5,178.1,207.5ZM231.85,57.9c2.06,1.94,4.5,3.47,5.86,5.63C243.83,73.24,250.84,82,260.21,89c3,2.26,4.68,6.31,7,9.57,3.77-4-2.61-5.16-2.61-8.71,4.81,1.26,10.62-1.35,13.81,4.51.55,1,.93,2.69.44,3.54-2.39,4.13-4.27,9.13-7.88,11.89-11.63,8.88-18.57,21-25.9,33-2.87,4.68-6.51,8.76-12.84,10.13.29-8.4,3.17-15.18,9.45-20.7l-4.46,2.34c2.68-5,4.69-8.69,6.72-12.43l-1.34-.69c-3.47,6.69-7,13.36-10.39,20.08a19,19,0,0,0-1.38,4.26c-1.51,6.69-5.3,11.52-11.41,14.93a14.59,14.59,0,0,0-5.93,5.9c-3,6.49-8.48,10.8-13.33,15.7l3.72-.55c-2.17,3.34-3.51,6.53-5.87,8.59-1.42,1.24-4.43.73-6.73,1,.09-1.29-.33-3.16.38-3.81a57.68,57.68,0,0,1,6.88-4.78l-8,3c-2.57,1-5.14,1.94-8.6,3.24.21-7.25,1.27-12.57,6.67-16.07,2.26-1.46,4.41-3.31,6.89-4.2,15.12-5.44,22-19,31.28-30.21a6.86,6.86,0,0,0,1.43-4.37q-3.53,4.38-7.06,8.8l-1.1-.44q1.24-5.81,2.51-11.59l-.81-.26c-.9,2.95-2.66,5.92-2.53,8.82.38,8.27-5.75,11.74-10.86,16.16-4.91-5.82-4.09-18.57,1.89-24.26,5.55-5.28,11.64-10,17.46-15l-7.83-6.21,2-1-33-1.62c6.42-9.8,14.33-4.25,22.54-4.8l-9.62-2.46L217,94.55c-.17-.45-.33-.89-.51-1.33l-7.13,2.33c1-1.79,1.48-2.76,1.54-2.87-6.14,2.45-12.87,5.13-19.6,7.83l-1.24-1,6.25-11.35-.54-.56c-2.36,2.87-4.72,5.74-7.09,8.64-.41-.68-1-1.68-1.58-2.56-.48,1.19-.9,2.22-1.67,4.1,2.77,4.64,2,8.63-3.5,13.19-5.22,4.29-6.39,10.52-8.22,16.49a19,19,0,0,1-3.15,6.22c-2.91,3.62-6.41,6.79-9.24,10.46-1.71,2.22-3.09,3.3-6.2,2.93a19.8,19.8,0,0,0-8.68,1.25c-5.22,1.87-12.52-3-12.39-8.48a92.33,92.33,0,0,0-.29-11.16c-.32-3.33-.25-6.17,3-8.27,4.1-2.61,7.66-6.26,12-8.16,7.85-3.41,11.65-10.58,17.19-16.09,2.92,1.1,5.68,2.16,7,2.68,5-5.4,9.58-10,13.75-15,1.54-1.83,2.14-4.4,2.41-7.09l-4.34,7.66c-.78-1.4-1.18-2.15-1.67-3-2,7.3-9.48,14.21-13.82,12.37,6.78-6.86,11.9-15.13,20.69-19.71,1.3-.67,3.5-.39,5,.16,2.26.83,4.27,2.29,6.93,2.63-1.77-1.12-3.59-2.17-5.3-3.35-3.82-2.67-3.56-4.8.27-7.35a23.25,23.25,0,0,1,15.93-3.64c1.51.16,3,0,5.91,0L212.1,60.8c3.33-5.43,3.88-5.66,10.35-4.94l-13.81-5.28-.06-2,16.75-3.51-4.28-.45c-.11-.29-.21-.58-.31-.87,2.5-1.07,5-2.16,8.49-3.67C230.19,46.6,231.07,52.56,231.85,57.9Zm-3.33-19-20.39,7.88c.3-5.58.57-10.43.83-15.28l-.87-.08c-.53,4-1,8-1.59,12-.64,4.52-3.95,5.83-7.75,3-1.35-1-2.48-2.28-3.77-3.36s-2.65-2-3.47-2.64c4.11-6.1,7.64-11.5,11.4-16.73a5.45,5.45,0,0,1,3.4-1.63c11.66-1.73,14.1-.43,19.32,10.09C226.59,34.17,227.34,36.19,228.52,38.93Zm24.77-5.78c-4.74-3.22-12.8-2.35-11.35-11.07C251.66,22.85,251.66,22.85,253.29,33.15Zm-5.23-22.34c-4.45-1.23-2.57-4.43-2.59-8.14,4.34,4.92,12.68,3.18,13.64,11.1C255.44,12.79,251.73,11.82,248.06,10.81Zm21.09,7.57c11.28-6.24,17.92,1.79,25.31,7.39C285.77,24.6,276.27,26.29,269.15,18.38Zm40.65,5.11c7.08-7.32,16.18-8.55,23.48-3.13Z"/></svg>