<svg xmlns="http://www.w3.org/2000/svg" width="2560" height="800" viewBox="0 0 2560 800"><title>Grobovi</title><path d="M835.22,725.35a8.86,8.86,0,0,1-1.35.21q-32.68-.36-65.38-.76a3.77,3.77,0,0,1-.83-.23,5.55,5.55,0,0,1-.22-1c0-.88,0-1.76,0-2.64q.33-29.93.68-59.84a11.64,11.64,0,0,0,0-1.32,4.13,4.13,0,0,1,1.57-3.67q14.06-13.53,28-27.14c.76-.73,1.49-1.49,2.12-2.12.08-6.68.15-13.17.23-19.82a14.22,14.22,0,0,0-1.79-.3c-2.73-.06-5.45-.06-8.17-.11-.78,0-1.56-.09-2.41-.15a10.08,10.08,0,0,1,0-4.79c4.1-.34,8.13.16,12.28-.14.68-2.77,0-5.6.5-8.32,1.85-.49,1.92-.49,4.56-.09.59,2.69-.12,5.51.3,8.34a13,13,0,0,0,3.95.29c1.4.06,2.81,0,4.22.06l4,.09c.51,1.67.18,3.19.18,4.75-2.21.49-4.23.13-6.23.21s-4-.25-6.18.15c-.07.7-.19,1.38-.2,2.06-.08,5.27-.08,10.54-.22,15.82a4.37,4.37,0,0,0,1.45,3.46q13.56,13.67,27,27.4c3.22,3.29,2.6,1.75,2.55,6.4q-.3,29.93-.67,59.84c0,1,0,2.09,0,3.34" fill="#241918" fill-rule="evenodd"/><path d="M1160.51,620.76h0a9.92,9.92,0,0,0-2.71-3.53,26.63,26.63,0,0,0-9.16-6.07,6.56,6.56,0,0,0-3.56-.83c0,.49,0,.86.08,1.21.65,3.44,1.29,6.89,2,10.32a7.1,7.1,0,0,0,.62,1.43,90.51,90.51,0,0,0,12.76-2.53m-8.51,25.1h0a66.61,66.61,0,0,0,2.39,12.76c4.43-1.92,9.9-9.94,10.29-15.1-.16-.07-.34-.23-.49-.2q-5.76,1-11.49,2.14A2.7,2.7,0,0,0,1152,645.86Zm-29.56-31.46h0a8.24,8.24,0,0,0-.93.51,27.1,27.1,0,0,0-9.53,13.82,6.06,6.06,0,0,0,0,1.53l4.64-.88c1.4-.26,2.81-.49,4.19-.8s3-.31,4.25-1.07A68.73,68.73,0,0,0,1122.44,614.4Zm-6.18,38h0c2.11,4.86,11,10.78,15.46,10.54,0-.17.17-.35.15-.51-.71-3.83-1.42-7.66-2.17-11.48a3.39,3.39,0,0,0-.59-1Zm-22.14-18.75,7.7-1.47c.2-.72.42-1.33.55-2a36.47,36.47,0,0,1,17-24.64c.48-.3.92-.66,1.51-1.07-.15-.93-.28-1.86-.44-2.78s-.35-1.86-.53-2.85a4.92,4.92,0,0,1,1.09-.56q10-1.92,19.91-3.78a3.82,3.82,0,0,1,.75,0,10.39,10.39,0,0,1,.57,1.43c.3,1.39.54,2.8.83,4.31.66.2,1.26.44,1.88.57a36.52,36.52,0,0,1,24.31,16.54c.35.55.76,1.06,1.23,1.7l7.9-1.5a4.58,4.58,0,0,1,.59,1.08q1.92,10,3.78,19.91a4.29,4.29,0,0,1-.06.76,6.93,6.93,0,0,1-1.4.57c-2.13.45-4.28.83-6.51,1.26-.19.72-.41,1.33-.53,2a36.44,36.44,0,0,1-16.64,24.55c-.47.3-.91.65-1.49,1.06.5,3.21,1.17,6.36,1.76,9.53s1.21,6.36,1.81,9.54l1.86,9.81q.91,4.77,1.81,9.54c.6,3.16,1.22,6.32,1.8,9.56-2.48,1.09-5,1.19-7.36,1.71s-4.67.91-7,1.34-4.81,1-7.14,1.27c-.95-.86-.88-1.88-1-2.78-1.27-6.53-2.5-13.08-3.74-19.62q-2.1-11.09-4.21-22.15c-.19-1-.39-2.06-.6-3.17a10.81,10.81,0,0,0-1.59-.56A36.56,36.56,0,0,1,1107,655.59c-.24-.39-.55-.75-.93-1.26l-7.61,1.32a47.88,47.88,0,0,1-1.63-7.36c-.49-2.32-.9-4.67-1.34-7S1094.52,636.46,1094.12,633.69Z" fill="#241918" fill-rule="evenodd"/><path d="M1754.13,644.2c.18-1.25.37-2.32.49-3.41.55-5.45,1.12-10.9,1.61-16.36a6.58,6.58,0,0,1,1.61-3.92c2.9-3.4,5.71-6.88,8.57-10.32.34-.42.74-.79,1.27-1.35a10.72,10.72,0,0,1,1,1.37c2.19,4,4.31,8.09,6.53,12.1a6.63,6.63,0,0,1,.78,4.18c-.59,5.44-1.11,10.9-1.64,16.35a7.62,7.62,0,0,0,.06,3.45c1.11.17,2.19.36,3.28.47,7.57.77,15.13,1.61,22.71,2.21a8.26,8.26,0,0,1,5.81,2.76c1.9,2,4,3.9,6,5.85.46.45.87,1,1.47,1.64-.64.51-1.1.95-1.62,1.29-2.53,1.64-5.13,3.2-7.6,4.92a7.3,7.3,0,0,1-5.33,1.31c-7.67-.86-15.36-1.57-23-2.32-1.1-.11-2.21-.15-3.52-.23a16.09,16.09,0,0,0-.53,1.92c-.16,1-.23,2-.32,3-1.83,18.37-3.69,36.72-5.44,55.09a10.42,10.42,0,0,1-2.66,6.29c-2.52,2.84-4.87,5.83-7.3,8.76-.48.58-1,1.11-1.74,1.87-.48-.73-.87-1.23-1.16-1.78-2-3.74-4-7.52-6.07-11.21a8.07,8.07,0,0,1-1-5.11q2.79-27.37,5.47-54.75c.19-1.88.37-3.76.54-5.44-.93-1.15-2-1-3-1.06-7.79-.8-15.57-1.64-23.37-2.29a8.18,8.18,0,0,1-5.83-2.74c-1.8-2-3.85-3.74-5.77-5.61-.55-.54-1-1.12-1.53-1.64.16-.33.19-.62.35-.72,3.36-2.2,6.76-4.35,10.1-6.59a4.47,4.47,0,0,1,3.22-.49l17.36,1.72c2.56.26,5.12.52,7.68.76.75.06,1.51,0,2.46,0" fill="#241918" fill-rule="evenodd"/><path d="M1436,707.33l1.7-54.89,6.7.2a23.13,23.13,0,0,1,19.53-22.13l1.1-35.45-16.22-.5.2-6.25,16.21.5.52-16.76,6.25.19-.51,16.77,16.21.5-.19,6.25-16.22-.5-1.09,35.13a23.14,23.14,0,0,1,20.44,23.69l6.69.21-1.7,54.89,6.52.2-.26,8.46-72.66-2.25.26-8.46Z" fill="#241918"/><path d="M855.15,91.48a11.38,11.38,0,0,0-1-1.55c-5.88-7.26-13.67-6.23-21.48-2.5a10.13,10.13,0,0,0,1.18-3.17l-1.56.58c-2.24-2.07-1.82-.6-1.39-2.9l-2.48,1.76a18.25,18.25,0,0,0-1.59-12.65c-2.81-4.8-7.45-7.59-11.57-7.44,4.66,3,7.51,7,4.48,11.5,2.17.79,3,2,1.8,4.45,1.22,0,2.49,0,2.87,1.82.46,2.25-1.43-.5,1.11,2.93,1.9,2.57.57,3.79,0,6.55l1.91-.33c1.78-.51,3.12-1.25,5-.75.41.1,1.69.66,1.85.68l1.6-.19c2-.37,1.8-.27,3.11,1.93,1.87-1.57,3.37-1.64,4.51.4,4.15-4,7.83-2.81,12.2.63ZM571.64,272.55a12.33,12.33,0,0,0-1.58-1.57c-8.53-7.15-17.41-4.17-25.71,2a11.64,11.64,0,0,0,.67-4l-1.7,1c-3.09-1.92-2.27-.29-2.29-3.09l-2.49,2.63a21.78,21.78,0,0,0-4.75-14.44c-4.39-5-10.46-7.18-15.23-6.06,6.13,2.48,10.39,6.51,7.86,12.43,2.71.43,4,1.7,3.12,4.8,1.42-.28,2.91-.61,3.77,1.47,1.06,2.53-1.78-.26,2,3.18,2.81,2.57,1.53,4.3,1.47,7.67l2.16-.83c2-1,3.36-2.17,5.73-2,.5,0,2.13.38,2.32.38l1.83-.6c2.26-.89,2-.72,4.07,1.55,1.84-2.26,3.58-2.69,5.38-.56,3.94-5.63,8.52-5.08,14.41-2ZM942.73,41.22A7.81,7.81,0,0,0,942.1,40c-3.67-5.61-9.3-5.44-15.15-3.35A7.35,7.35,0,0,0,928,34.52l-1.16.3c-1.45-1.64-1.26-.56-.79-2.18l-1.89,1.08a13.12,13.12,0,0,0-.21-9.14c-1.67-3.64-4.77-6-7.72-6.15,3.1,2.5,4.85,5.56,2.36,8.53,1.49.72,2,1.68,1,3.31.87.08,1.78.15,1.92,1.5.16,1.64-1-.46.57,2.17,1.17,2,.13,2.75-.49,4.68l1.39-.1c1.31-.23,2.32-.66,3.65-.17.29.11,1.16.59,1.27.63l1.16,0c1.46-.12,1.3-.06,2.08,1.61,1.45-1,2.53-.93,3.19.61,3.25-2.56,5.79-1.44,8.66,1.34Zm70.18,146.13-1.52-.7a9.61,9.61,0,0,0-1.68-.19c-8.44-.24-12.29,5.93-14.29,13.76a9.51,9.51,0,0,0-1.49-2.77l-.51,1.47c-2.74.33-1.48.93-2.82-.78l-.23,2.83a16.64,16.64,0,0,0-9.66-6.57c-5-.92-9.6.68-11.9,3.7,4.82-1.46,9.25-1.06,10.55,3.82,1.82-1.06,3.18-.9,4.13,1.44.71-.87,1.43-1.8,2.93-.94,1.83,1-1.18.71,2.67,1,2.89.21,2.95,1.91,4.51,4l.89-1.57c.69-1.57,1-3,2.43-4,.32-.23,1.44-.8,1.56-.9l.8-1.25c.91-1.66.86-1.45,3.15-1,0-2.29.84-3.41,2.91-3C1005,190.26,1008,188.36,1012.91,187.35ZM977.12,115a7.48,7.48,0,0,0-1.12-.74c-5.88-3.19-10.77-.37-14.92,4.24a7.39,7.39,0,0,0-.08-2.42l-.88.81c-2.06-.75-1.37.11-1.72-1.54l-1.16,1.85a13.11,13.11,0,0,0-4.53-8c-3.18-2.41-7-3-9.7-1.75,3.91.73,6.9,2.6,6.12,6.39,1.65-.07,2.56.52,2.41,2.46.81-.34,1.65-.71,2.41.41.92,1.37-1.09.06,1.53,1.64,2,1.18,1.42,2.36,1.79,4.35l1.18-.75c1-.82,1.72-1.68,3.13-1.88.3,0,1.3,0,1.41-.05l1-.57c1.23-.8,1.12-.67,2.59.43.81-1.56,1.79-2,3.1-1,1.65-3.79,4.42-4,8.26-2.93ZM918.5,126.37a7.89,7.89,0,0,0-1.28-.61c-6.66-2.5-11.38,1.18-15.08,6.64a7.59,7.59,0,0,0-.44-2.54l-.8,1c-2.28-.5-1.43.31-2-1.38l-1,2.12a13.88,13.88,0,0,0-5.92-7.7c-3.7-2.07-7.82-2.11-10.47-.42,4.23.19,7.65,1.72,7.38,5.82,1.73-.31,2.77.18,2.9,2.24.8-.48,1.62-1,2.59.08,1.17,1.3-1.14.22,1.85,1.5,2.24.95,1.84,2.27,2.52,4.31l1.13-1c1-1,1.56-2,3-2.43.31-.09,1.36-.22,1.48-.27l1-.74c1.17-1,1.08-.87,2.79.07.62-1.75,1.58-2.38,3.12-1.48,1.18-4.23,4.06-4.87,8.25-4.29ZM603.07,181.25a11.12,11.12,0,0,0-1.07-1.54c-6-7.2-13.75-6.08-21.54-2.27a9.84,9.84,0,0,0,1.16-3.18l-1.56.6c-2.27-2.05-1.83-.58-1.43-2.9l-2.46,1.79a18.21,18.21,0,0,0-1.73-12.64c-2.87-4.78-7.55-7.52-11.66-7.32,4.69,3,7.59,7,4.6,11.46,2.18.77,3,2,1.85,4.44,1.22,0,2.5-.06,2.9,1.79.49,2.25-1.44-.49,1.14,2.92,1.93,2.55.61,3.79.05,6.56l1.92-.36c1.77-.52,3.1-1.28,5-.8.42.1,1.7.64,1.86.67l1.6-.22c2-.39,1.8-.29,3.14,1.9,1.85-1.59,3.36-1.68,4.52.35,4.11-4.05,7.81-2.9,12.22.5Zm1926.08,568c-22.66,18-13.28,6.43-31.09,14.15-50.2,21.77-69.25-5.28-111.08-1.24-33.37,3.21-37.07,3.83-50.77,1.87l.32-4-15.92-1.3,11-134.06-16.35-1.34a56.63,56.63,0,0,0-47.06-60.47l7-85.83,39.61,3.24L2316,465l-39.61-3.24,3.35-40.95-15.27-1.25-3.35,40.95-39.61-3.24-1.25,15.26,39.61,3.24-7.08,86.6a56.65,56.65,0,0,0-50.53,51.72L2186,612.79l-11,134.06-15.93-1.3-.68,8.41c-14.84-1.18-28.89-3.51-36.11-6.31-1.53-.59-90.44-10.77-108.69-16.25-12-3.6-20.71-6.58-27.77-9l35.87-186.07s5.44-46.86-48.67-65.79c-2.59-11.73-8.51-21.3-21.41-19.55l2.2-2c1.87-41.76-60.6-40.59-56.59-5.15-19.14-5-23.6,8.75-25.92,24.5-48.48,16-47.23,59.1-47.23,59.1l17.23,191.06c-4.33,2-29,3-33.84,4-31.83,6.86-103.13-2.86-133.89-12.64-1.54-.49-3-.94-4.44-1.36,4.29-56.65,19.4-115,19.4-171-12.64-15.79-28.42-28.42-41.06-41h-32.11V463c11.65,1,23.3,1.76,35,1.87.73-6.79,3.42-17.14,6.1-25.21-13.68.07-27.36.56-41.05.72V408.05c-8.93,0-17.71-.19-25.26-1.59,0,11.21,0,22.42.13,33.63a250.08,250.08,0,0,1-34.87-3.62v3.16a67.3,67.3,0,0,0-3.07,19c12.78.13,25.54,1.06,38.32,2.17.31,11.9.81,23.79,1.64,35.69h-22.15c-12.63,12.63-28.42,25.26-41.06,41,0,56.21,9.38,110.08,12,165.64-12.46,5.25-21.67,11.54-41.15,7.64-23.13-4.63-58.8,3.16-77-4.33-5.72-2.36-20.87-2.64-35.74-2.41a45.54,45.54,0,0,0-.82-5.85l-7.69-1.08c-.14-2.91-.36-5.68-.39-8.45q-1-82.1-2-164.2c0-2,0-4,.09-5.92a8.37,8.37,0,0,1,.79-2.23l7-1.14c3.31-8.1,7-15.94,9.38-24.87-30.63-21.47-61.17-42.65-91.34-63.63a12.61,12.61,0,0,0-2.24.7c-1.21.73-2.38,1.52-3.51,2.35q-42.3,31-84.56,62.12a2.08,2.08,0,0,0-.48.7,9.87,9.87,0,0,0-.43,1.18,242.43,242.43,0,0,0,10,23.58l8.13.8c.72,59.29,1.42,117.94,2.1,176.59a33.59,33.59,0,0,1-.51,4.2l-8.15,1.37a91.49,91.49,0,0,0-.9,13.49c-10.82,2.3-38.78,1.63-45.05,1.63-23.18,0-92-7-99.12-6.49-.5,0-2.51-.15-5.51-.47l-20-163.73s2.29-58.19-79.31-58.63q-.53-16.54-1-33.1c12.24-.79,24.21-1.16,35.33,0,0,0,9.41,3.42,15.1,7l1.86-.06c-2.15-13.68-1.18-29-4.32-42.93-3.51,5.15-11.42,15.52-11.42,15.52l-37.16,1.17q-.09-3.25-.2-6.5c2.53-8.45,6.94-16,9.49-23.54l.87-1.89c-14.8,2.32-29.72.93-42.78-.52l-3.72.11c3.95,7.32,7.95,16.49,11.9,23.81l.06,1.85c.08,2.48.11,5,.12,7.44l-25.89.81c-9.29.29-15-3.25-20.79-10.5l-1.86.05c.35,11.15,8.71,40.64,8.71,40.64l.12,3.72a56.26,56.26,0,0,1,8.88-13.3,301.94,301.94,0,0,0,30.46-.95c-.32,10.81-.66,21.62-.22,32.41-75,8-69.22,62.93-69.22,62.93L865.64,713.63c-27.37,10.66-101.17,11.75-138.91,5.67Q720.57,611.17,714.29,503a68.87,68.87,0,0,0-1.79-12.29c-4.54-18.67-16.89-27.39-30.64-28.86a27.56,27.56,0,0,1-4.41-1.21c-.31-1.22-.64-2.2-.81-3.21-1.5-9.09-6.13-16.41-12.78-22.56a56.4,56.4,0,0,0-18.51-11.2,73.3,73.3,0,0,0-39.79-3.33c-11.64,2.1-22.35,6.63-31.41,14.46-9.41,8.14-15.37,18.11-15.88,30.86a8,8,0,0,1-.6,2,13.4,13.4,0,0,1-1.54.79c-1,.34-2,.66-3,.92-14.26,3.73-22.36,13.24-25.75,27.26-1.42,5.88-1.28,11.81-.94,17.78q3.32,57.45,6.6,114.91,2.64,45.87,5.27,91.73c-9.83,4-18.36,8.28-23.27,12.13-25.4,19.9-56.49,11.39-85.15,6.19-15-2.72-28.54-6.09-41.79-9.15q-5.65-68.32-11.4-136.66a50.9,50.9,0,0,0-1.89-10.47c-4.72-15.78-14.91-26.85-29.85-33.6-9.07-4.09-18.7-5.91-28.58-6.65-1.42-.1-2.83-.34-4.49-.55-.71-3.45-1.47-6.69-2-10-.6-3.51-1.13-7-1.45-10.57-.29-3.23-1.8-6.43-.63-9.72,5.81-1.49,11.45.49,17-.15.64-5-1.25-28.05-2.7-33-5.53.47-10.75,3.13-16.87,2.87-.8-4.33-.6-8.48-.66-12.6s.88-8.3-.12-12.39c-4.61-.59-18.17.2-30.72,1.82a12.43,12.43,0,0,0-2.46.91c.2,1.21.36,2.2.54,3.2,1.06,6,2.17,11.93,3.15,17.92a16.07,16.07,0,0,1-.27,3.74c-5.66.18-11-.76-16.72-.22-.06,4.07.45,7.79.73,11.51.26,3.55.46,7.11.91,10.64s-.14,7.46,1.6,10.93c5.7.14,10.72-2.74,16.12-2.43,1.77,6.36,2.07,24.88.51,30.72l-3.51.93c-9.38,2.38-18.39,5.69-26.5,11.09-12.42,8.26-20.44,19.56-23.46,34.27a56.67,56.67,0,0,0-.68,16.24q5.87,69.83,11.64,139.66c-7.61,4.39-15,9.19-22.44,14.25-9.57,6.54-77.19-12.11-85.65-16.15-10.89-5.2-73.71,1-86.05.18-9.32-.61-26.82,6.92-41.24,15.42V800H2560V742C2544.52,743.82,2532.79,746.38,2529.15,749.27ZM727.54,254l-2.4-2.43c-2,3.64-3.5,1-4.8,4.78-6-8-19.29-12.28-28.93-2.77,13.09-1.42,9.79.53,13.7,3,1.7,1.09-.15.11,2.07.95l2.28.68c.29.08,1.07.35,1.34.41l8.22,1.09c4.33,1,5.28,1.75,8,4l.65-1.46c2.38-6.19.07-3.4,6.12-8.9l3.24-2.69c.28-.27,1.21-1.27,1.46-1.55,3.4-3.73,1,.61,2.79-4.33,2.84-7.85,1.52-4.27,9.92-9C737.22,233.57,730.6,241.71,727.54,254ZM1948.76,74.37c-.9-1.68-.38-2.69-.22-5.23-1.73,1.36-2.11,1.5-4.21.33-3.85-2.17-.63-.45-2.28-3.55-.16.16-1.32,1.42-1.4,1.49l-1.9,1.67c-.39-17.12-8.86-32.69-28.13-32.8A9.21,9.21,0,0,0,1912.5,38c5.33,4.33,11.6,7.53,8.41,17.67l2,1c1.29.92.55-.76,2,2,1,1.86.43,3.42.13,5.05l5.21.58c.76,3.05-.08,3.52.72,4.83s1.49.48,3.32,3.15c2.39,3.48,1.22,7.5.62,11.44,5.25-1.95,7.16-4.88,13.92-3.9,10.08,1.47,4.49-4.79,11.11,1.85,3.79-3.08,5.47-3.93,8.92.18,4.09-9.54,14.83-6.06,22.09-2.48C1986.1,67.58,1965.33,60.81,1948.76,74.37ZM727.24,62.08a6.68,6.68,0,0,1-1.49-2.25c0-.09-.54-1.42-.75-1.84-1.85,1.7-.3,1.91-3.46,1.25-3.74-.79-1.73.74-3-3.08L715.41,61c-3.1-17.06-16.19-30.26-36.27-25,10.64,4.87,15.06,3.06,16.39,17,4.24-2.35,5.61,1.4,5.78,5.6l6-.43c.37,1.4,0,1.29.63,2.57,1.08,2.24,0,.87,1.71,2.26,2.38,2,6.17,1.63,9.16,13,.2-.19.47-.79.56-.61.6,1.19,1.91-6.82,9.72-7.57,4.46-.43,2-.08,5.06-2,2.73-1.71,3.57-.17,6.35,1,2-4.35,3.48-5.1,7.93-2.59,2.56-9.5,11.57-9.08,21.15-7.92C753,42.27,733,51.41,727.24,62.08Zm-77.4,77.66c-1.51-4.41-5.33-5.27-9.64-4.87a5.12,5.12,0,0,0,1.1-1.28h-.83c-.69-1.36-.75-.6-.15-1.6l-1.46.4a9.15,9.15,0,0,0,1.43-6.2c-.49-2.74-2.19-4.85-4.14-5.48,1.66,2.22,2.31,4.59.12,6.16.88.74,1.06,1.47.07,2.39.57.21,1.18.42,1,1.35-.18,1.13-.59-.48,0,1.56.45,1.53-.39,1.88-1.14,3.07l1,.17a4.42,4.42,0,0,1,2.49.52c.17.12.67.6.74.64l.79.18c1,.18.89.19,1.12,1.44,1.15-.41,1.87-.18,2,1,2.63-1.16,4.15,0,5.6,2.4l.06-.92A5.38,5.38,0,0,0,649.84,139.74ZM588.16,54.81a5.5,5.5,0,0,0-.7-.83c-3.83-3.85-8.28-2.8-12.58-.18a5.83,5.83,0,0,0,.5-1.9l-.87.43c-1.42-1.07-1.09-.24-1-1.6l-1.33,1.16a10.6,10.6,0,0,0-1.67-7.22c-1.91-2.62-4.77-4-7.14-3.63,2.88,1.48,4.77,3.63,3.27,6.39,1.31.33,1.87,1,1.31,2.48.7-.08,1.44-.17,1.77.88.4,1.28-.86-.2.81,1.63,1.26,1.38.56,2.16.38,3.8l1.09-.31a5,5,0,0,1,2.87-.73c.25,0,1,.28,1.11.29l.92-.21c1.14-.34,1-.26,1.91.93,1-1,1.86-1.15,2.64,0,2.17-2.57,4.37-2.1,7.1-.36Zm140,62.77a6.64,6.64,0,0,0-1.07-.18c-5.42-.44-8.12,3.25-9.7,8a5.63,5.63,0,0,0-.85-1.77l-.39.89c-1.77.11-1,.53-1.78-.58l-.25,1.75a10.63,10.63,0,0,0-6-4.42c-3.16-.74-6.2.09-7.79,1.88,3.15-.74,6-.33,6.64,2.74,1.21-.6,2.08-.45,2.6,1,.49-.51,1-1.06,1.92-.48,1.13.72-.79.41,1.68.72,1.84.23,1.82,1.28,2.75,2.64l.63-.94a5,5,0,0,1,1.71-2.42c.21-.13.95-.45,1-.5l.56-.75c.65-1,.61-.87,2.06-.54.1-1.41.67-2.08,2-1.73,0-3.36,2-4.43,5.17-4.88Zm-7.88,75.73c-1.87-5.1-6.36-6-11.36-5.41a6,6,0,0,0,1.25-1.52l-1,0c-.85-1.56-.9-.67-.23-1.86l-1.69.51a10.65,10.65,0,0,0,1.5-7.27c-.65-3.17-2.68-5.58-5-6.27,2,2.54,2.82,5.28.31,7.17,1.05.85,1.28,1.7.15,2.8.68.22,1.39.45,1.25,1.54-.17,1.32-.7-.55.06,1.82.56,1.77-.4,2.19-1.25,3.61l1.12.17a5.1,5.1,0,0,1,2.92.53c.2.14.8.68.89.73l.92.19c1.17.17,1,.19,1.35,1.65,1.32-.51,2.16-.27,2.41,1.07,3-1.43,4.84-.08,6.6,2.64l0-1.07A6.27,6.27,0,0,0,720.31,193.31ZM907.67,185a25,25,0,0,0-4.14-.75c-20.89-2-31.49,12.17-37.79,30.58-1.23-3.31-1-3.6-3.22-6.88L861,211.36c-6.86.35-3.83,2-6.86-2.33l-1.06,6.74c-3.37-6.2-13.12-14.91-22.82-17.32-12.15-3-23.92,0-30.14,6.89,12.19-2.71,23.11-1,25.51,10.88,4.67-2.24,8-1.64,10,4.11,1.91-2,3.87-4.06,7.44-1.76,4.35,2.81-3,1.52,6.45,2.83,7.11,1,7,5,10.5,10.33l2.47-3.6c2-3.65,2.89-7,6.71-9.27.82-.5,3.72-1.68,4-1.89l2.2-2.88c2.56-3.8,2.4-3.32,8-2,.43-5.47,2.67-8,7.74-6.63.09-13,7.79-17,20.19-18.6Zm939.64,115.17.42-6.63c-1.21.62-2.82,4.73-8.3-.33l-1.48-1.95-3,4.59c-2.18-4.51-2.7-11.53-4.94-16.21s-5.28-8.85-8.61-11.38c-8-6-17.76-10.35-30.45-7.27,5.68,2.36,9.94,3.07,14,6.7a15.81,15.81,0,0,1,4.94,15,3.62,3.62,0,0,0,.73.24l2.25.74c4.57,1.8,4.3,3.37,4,7.93l7.84.7-.34,5.88c10.77,1.35,9.24,11.73,13.52,17.53,3.91-3.83,8.49-13.71,17.32-7.79l2.51-4c4.16,0,5.1,1.19,7.17,3,2.75-2.94,6.85-8.1,10.51-1.63,6.12-12.91,15-12,28.5-7.85C1894.81,281.12,1861.29,281.87,1847.31,300.15Zm131.19-36.88c.17-.91.51-1.89.63-2.82-1.69.86-.18,1.42-2.31.3-.82-.43-1.16-1.38-1.38-1.58l-1.58,1.88c-.53-3.93.67-7-2.67-11.65-3-4.1-7.89-6.43-11.73-5.76,4.44,2.62,8,5.46,5.4,10.34,2.89-.12,2.75,1.38,2.53,3.57,2.1.34,3.53.7,2.38,3,4.67,2.63,2.64,6.22,4,8.17,4.25-4.61,5.25-2.45,6.9-2.45,1.28,0,.83-.36,2-.94a3.72,3.72,0,0,1,2.27,2.15c1.44-1.87,2.81-2.23,4.37-.29,4.15-5.84,9.22-1.52,11.88-1C1994.33,257.28,1985.67,258.14,1978.5,263.27Zm-74.31-108.15c-.93-.74-1.84-1.71-2.81-2.4,0,2.43,1.49,1.05-1,2.79a6.31,6.31,0,0,1-2.61.63l1.18,2.9c-4.77-1.75-7.52-4.94-14.77-3.93-6.41.88-12,5.07-13.53,9.82,5.62-3.46,10.93-5.73,14.93.07,1.58-3.34,3.19-2.29,5.54-.73,1.64-2.17,2.91-3.57,4.83-.89,5.76-3.72,8.62.73,11.63.34-2.67-7.56.37-7.4,1.36-9.27.76-1.45.09-1.15.13-2.82a4.75,4.75,0,0,1,3.79-1.29c-1.26-2.75-.85-4.5,2.28-5.11-4.12-8.18,3.79-11.34,6-14C1906.87,133.64,1902.67,143.94,1904.19,155.12ZM1692.91,82.07c0-1.19.15-2.51.06-3.7-1.89,1.52.14,1.82-2.81,1-1.14-.33-1.81-1.42-2.15-1.61l-1.49,2.76c-1.69-4.79-1-8.94-6.38-13.89-4.77-4.37-11.55-6-16.19-4.16,6.25,2.13,11.38,4.77,9.47,11.54,3.58-.9,3.79,1,4.09,3.81,2.71-.12,4.6,0,3.76,3.16,6.54,2.07,4.93,7.1,7.15,9.18,4.12-6.88,5.94-4.43,8-4.87,1.6-.33.94-.66,2.26-1.7a4.81,4.81,0,0,1,3.41,2.11c1.31-2.72,2.92-3.53,5.39-1.5,3.68-8.39,11.15-4.31,14.63-4.3C1711.17,70.44,1700.56,73.77,1692.91,82.07Zm-252.8-65.62c-12.24-2.8-19,4.06-21.54,13.53-.5-.9-.9-2-1.45-2.86-.84,1.93.84,1.34-1.77,1.89a5.4,5.4,0,0,1-2.3-.37l0,2.72c-3.24-3-4.38-6.46-10.54-8.07-5.43-1.43-11.3.07-14.12,3.37,5.67-.9,10.67-1,12,5,2.39-2.14,3.33-.76,4.69,1.27,2-1.19,3.52-1.9,4.17.89,5.86-1.06,6.66,3.46,9.21,4.15.37-7,2.76-5.8,4.18-7,1.09-.91.45-.89,1-2.22a4.18,4.18,0,0,1,3.47.23c-.09-2.62.82-3.89,3.53-3.34C1430,17.75,1437.43,17.85,1440.11,16.45ZM1254.2,72.86c-1.06-.71-2.11-1.67-3.2-2.33.16,2.6,1.68,1-.89,3.07-1,.8-2.37.71-2.74.89l1.51,3c-5.25-1.47-8.45-4.65-16.13-3C1226,76,1220.35,81,1219.11,86.18c5.72-4.18,11.2-7.05,16-1.19,1.41-3.7,3.22-2.71,5.87-1.24,1.57-2.46,2.8-4.06,5.09-1.36,5.85-4.47,9.27.06,12.47-.62-3.5-7.85-.23-7.94.67-10,.69-1.61,0-1.23-.1-3,1.57-1.31,2-1.57,4-1.69-1.58-2.83-1.29-4.74,2-5.66-5.09-8.4,3.1-12.45,5.26-15.49C1255.25,49.66,1251.63,61,1254.2,72.86Zm71.59,121.91c-1.06-2.16-1.88-4.7-3-6.8-2.17,4.39,1.8,3.2-4.33,4.17-2.35.38-4.52-1-5.29-1.11l-.36,6.32c-7.18-7.3-9.43-15.49-23.52-19.92-12.45-3.92-26.23-1.1-33.13,6.23,13.23-1.45,24.86-1,27.15,13,5.77-4.72,7.8-1.42,10.73,3.45,4.86-2.53,8.37-4,9.56,2.55,13.72-1.81,15.08,8.77,20.92,10.66,1.64-16.09,7-13.16,10.47-15.73,2.64-2,1.15-2,2.67-5,3.79-.69,4.72-.71,8,.93.07-6.09,2.34-8.94,8.57-7.35-.45-18.47,16.69-17.4,23.06-20.35C1349.21,157.92,1332.67,173.08,1325.79,194.77Zm-266.09,7.64c-10.16,15.4-7.5,22.65-6.79,42.07-2.08-2.19-4.22-4.4-7.61-5.39l1.83,4.68c-3.41,1.16-3.55,1.49-5.58,4.47L1037,245.9c.93,4.36,1.78,7.81,4.79,9.39-8-1.14-21.46-13.07-42.73-6.55-13.13,4-24.86,13.07-28.08,25.56,11.43-8,25.84-17.09,37.52-2,2.67-9,9.49-6.42,13.72-1.73,3.38-8.07,7.86-10.68,11.74-3.85,9.4-8.4,16.89-4,28.77-.52-.12-2.74-8.9-20.14,4.4-24.41-4.64-7.07-1.57-9.84,7.24-10.72-4.27-1.84-4-12.9,5-12.73-5-5.19-5.52-13.07-1.67-21a34.5,34.5,0,0,1,5.76-8.25c2.88-2.89,4.88-3,8.15-6.65C1075.81,183.91,1066,192.82,1059.7,202.41Z" fill="#141414"/><rect width="0.19" height="0.17" fill="#000003"/><rect x="2559.81" width="0.19" height="0.17" fill="#000003"/></svg>